<svg width="690" height="63" viewBox="0 0 690 63" fill="none" xmlns="http://www.w3.org/2000/svg">
<path d="M0.76 62.152V25.864H9.4V17.224H37.24V25.864H45.976V36.52H35.32V27.976H11.32V62.152H0.76ZM63.3063 62.152V53.608H54.6663V25.864H63.3063V17.224H91.1463V25.864H99.8823V51.4H108.522V62.152H97.9623V53.608H91.1463V62.152H63.3063ZM65.2263 51.4H89.2263V27.976H65.2263V51.4ZM115.323 62.152V8.776H123.963V0.231998H151.803V8.776H160.539V19.528H149.883V11.08H125.883V25.864H143.163V36.52H125.883V62.152H115.323ZM180.79 62.152V53.608H172.15V27.976H163.51V17.224H172.15V0.231998H182.614V17.224H208.726V27.976H182.614V51.4H206.806V42.76H217.366V53.608H208.726V62.152H180.79ZM225.588 42.376V31.528H253.332V42.376H225.588ZM261.948 62.152V17.224H272.508V62.152H261.948ZM261.948 11.08V0.231998H272.508V11.08H261.948ZM282.291 62.152V17.224H318.771V25.864H327.507V62.152H316.851V27.976H292.851V62.152H282.291ZM335.744 42.376V31.528H363.488V42.376H335.744ZM372.104 62.152V17.224H399.944V25.864H406.664V17.224H425.96V25.864H434.504V62.152H424.04V27.976H408.584V62.152H398.12V27.976H382.664V62.152H372.104ZM453.869 62.152V53.608H445.229V25.864H453.869V17.224H481.709V25.864H490.445V53.608H481.709V62.152H453.869ZM455.789 51.4H479.789V27.976H455.789V51.4ZM519.321 62.152V53.608H510.681V27.976H502.041V17.224H510.681V0.231998H521.145V17.224H547.257V27.976H521.145V51.4H545.337V42.76H555.897V53.608H547.257V62.152H519.321ZM567.479 62.152V17.224H578.039V62.152H567.479ZM567.479 11.08V0.231998H578.039V11.08H567.479ZM596.463 62.152V53.608H587.823V25.864H596.463V17.224H624.303V25.864H633.039V53.608H624.303V62.152H596.463ZM598.383 51.4H622.383V27.976H598.383V51.4ZM644.635 62.152V17.224H681.115V25.864H689.851V62.152H679.195V27.976H655.195V62.152H644.635Z" fill="#343434" style="fill:#343434;fill:color(display-p3 0.2042 0.2042 0.2042);fill-opacity:1;"/>
</svg>
